<svg width="14" height="31" viewBox="0 0 14 31" fill="none" xmlns="http://www.w3.org/2000/svg">
<path d="M7.39453 6.72363C6.94336 6.72363 6.5127 6.6416 6.10254 6.47754C5.69238 6.2998 5.33691 6.06055 5.03613 5.75977C4.73535 5.47266 4.49609 5.12402 4.31836 4.71387C4.1543 4.30371 4.07227 3.87305 4.07227 3.42188C4.07227 2.9707 4.1543 2.54004 4.31836 2.12988C4.49609 1.71973 4.73535 1.35742 5.03613 1.04297C5.33691 0.728516 5.69238 0.489258 6.10254 0.325195C6.5127 0.147461 6.94336 0.0585938 7.39453 0.0585938C7.8457 0.0585938 8.27637 0.147461 8.68652 0.325195C9.09668 0.489258 9.45898 0.728516 9.77344 1.04297C10.0879 1.35742 10.3271 1.71973 10.4912 2.12988C10.6689 2.54004 10.7578 2.9707 10.7578 3.42188C10.7578 3.87305 10.6689 4.30371 10.4912 4.71387C10.3271 5.12402 10.0879 5.47266 9.77344 5.75977C9.45898 6.06055 9.09668 6.2998 8.68652 6.47754C8.27637 6.6416 7.8457 6.72363 7.39453 6.72363ZM4.54395 30.2461C3.2041 30.2461 2.14453 29.8496 1.36523 29.0566C0.490234 28.1816 0.0527344 26.9033 0.0527344 25.2217C0.0527344 24.4287 0.162109 23.5127 0.380859 22.4736L3.23145 9H9.28125L6.2666 23.2734C6.15723 23.6289 6.10254 24.0801 6.10254 24.627C6.10254 25.2012 6.23242 25.6045 6.49219 25.8369C6.76562 26.0693 7.20312 26.1855 7.80469 26.1855C8.21484 26.1855 8.61133 26.0967 8.99414 25.9189C9.39062 25.7275 9.75293 25.4678 10.0811 25.1396C10.751 24.4697 11.2568 23.5811 11.5986 22.4736H13.3623C12.6104 24.5928 11.667 26.2812 10.5322 27.5391C9.5752 28.5645 8.49512 29.3027 7.29199 29.7539C6.41699 30.082 5.50098 30.2461 4.54395 30.2461Z" fill="#EC7D17"/>
</svg>
