<svg width="58" height="131" viewBox="0 0 58 131" fill="none" xmlns="http://www.w3.org/2000/svg">
<path d="M31.9766 29.2441C30.043 29.2441 28.1973 28.8926 26.4395 28.1895C24.6816 27.4277 23.1582 26.4023 21.8691 25.1133C20.5801 23.8828 19.5547 22.3887 18.793 20.6309C18.0898 18.873 17.7383 17.0273 17.7383 15.0938C17.7383 13.1602 18.0898 11.3145 18.793 9.55664C19.5547 7.79883 20.5801 6.24609 21.8691 4.89844C23.1582 3.55078 24.6816 2.52539 26.4395 1.82227C28.1973 1.06055 30.043 0.679688 31.9766 0.679688C33.9102 0.679688 35.7559 1.06055 37.5137 1.82227C39.2715 2.52539 40.8242 3.55078 42.1719 4.89844C43.5195 6.24609 44.5449 7.79883 45.248 9.55664C46.0098 11.3145 46.3906 13.1602 46.3906 15.0938C46.3906 17.0273 46.0098 18.873 45.248 20.6309C44.5449 22.3887 43.5195 23.8828 42.1719 25.1133C40.8242 26.4023 39.2715 27.4277 37.5137 28.1895C35.7559 28.8926 33.9102 29.2441 31.9766 29.2441ZM19.7598 130.055C14.0176 130.055 9.47656 128.355 6.13672 124.957C2.38672 121.207 0.511719 115.729 0.511719 108.521C0.511719 105.123 0.980469 101.197 1.91797 96.7441L14.1348 39H40.0625L27.1426 100.172C26.6738 101.695 26.4395 103.629 26.4395 105.973C26.4395 108.434 26.9961 110.162 28.1094 111.158C29.2812 112.154 31.1562 112.652 33.7344 112.652C35.4922 112.652 37.1914 112.271 38.832 111.51C40.5312 110.689 42.084 109.576 43.4902 108.17C46.3613 105.299 48.5293 101.49 49.9941 96.7441H57.5527C54.3301 105.826 50.2871 113.062 45.4238 118.453C41.3223 122.848 36.6934 126.012 31.5371 127.945C27.7871 129.352 23.8613 130.055 19.7598 130.055Z" fill="#6633CC"/>
</svg>
