<svg width="274" height="284" viewBox="0 0 274 284" fill="none" xmlns="http://www.w3.org/2000/svg">
<g filter="url(#filter0_d)">
<circle cx="137" cy="137" r="125" fill="#E5E5E5"/>
</g>
<path d="M149.009 12.5782C167.891 14.4007 186.111 20.4969 202.288 30.4049L137 137L149.009 12.5782Z" fill="#92E3A9"/>
<circle cx="138.5" cy="136.5" r="97.5" fill="white"/>
<line x1="136.5" y1="40" x2="136.5" y2="51" stroke="#C4C4C4"/>
<line x1="136.5" y1="219" x2="136.5" y2="230" stroke="#C4C4C4"/>
<line y1="-0.5" x2="11.0001" y2="-0.5" transform="matrix(-0.99999 -0.00458081 -0.000409595 1 233 134.05)" stroke="#C4C4C4"/>
<line y1="-0.5" x2="11.0001" y2="-0.5" transform="matrix(-0.99999 -0.00458081 -0.000409595 1 54 133.05)" stroke="#C4C4C4"/>
<line y1="-0.5" x2="11.0001" y2="-0.5" transform="matrix(-0.875747 0.482771 0.48642 0.873725 220.197 87.5713)" stroke="#C4C4C4"/>
<line y1="-0.5" x2="11.0001" y2="-0.5" transform="matrix(-0.875747 0.482771 0.48642 0.873725 63.4365 173.988)" stroke="#C4C4C4"/>
<line y1="-0.5" x2="11.0001" y2="-0.5" transform="matrix(-0.512905 0.858445 0.860577 0.50932 185.726 51.8818)" stroke="#C4C4C4"/>
<line y1="-0.5" x2="11.0001" y2="-0.5" transform="matrix(-0.512905 0.858445 0.860577 0.50932 93.642 206)" stroke="#C4C4C4"/>
<line y1="-0.5" x2="11.0001" y2="-0.5" transform="matrix(-0.868556 -0.495591 -0.491964 0.870616 220.554 182.452)" stroke="#C4C4C4"/>
<line y1="-0.5" x2="11.0001" y2="-0.5" transform="matrix(-0.868556 -0.495591 -0.491964 0.870616 65.5542 92.4517)" stroke="#C4C4C4"/>
<line y1="-0.5" x2="11.0001" y2="-0.5" transform="matrix(-0.514005 -0.857787 -0.855635 0.517579 186.654 216.436)" stroke="#C4C4C4"/>
<line y1="-0.5" x2="11.0001" y2="-0.5" transform="matrix(-0.514005 -0.857787 -0.855635 0.517579 95.6541 62.4355)" stroke="#C4C4C4"/>
<line x1="147.113" y1="40.4264" x2="146.443" y2="46.3889" stroke="#C4C4C4"/>
<line x1="126.167" y1="223.056" x2="125.497" y2="229.018" stroke="#C4C4C4"/>
<line y1="-0.5" x2="6" y2="-0.5" transform="matrix(-0.99323 -0.116165 -0.112021 0.993706 232.512 144.66)" stroke="#C4C4C4"/>
<line y1="-0.5" x2="6" y2="-0.5" transform="matrix(-0.99323 -0.116165 -0.112021 0.993706 49.9594 122.697)" stroke="#C4C4C4"/>
<line y1="-0.5" x2="6" y2="-0.5" transform="matrix(-0.924159 0.382009 0.38586 0.922557 224.977 97.042)" stroke="#C4C4C4"/>
<line y1="-0.5" x2="6" y2="-0.5" transform="matrix(-0.924159 0.382009 0.38586 0.922557 54.5449 168)" stroke="#C4C4C4"/>
<line y1="-0.5" x2="6" y2="-0.5" transform="matrix(-0.605515 0.795834 0.798353 0.60219 194.705 57.728)" stroke="#C4C4C4"/>
<line y1="-0.5" x2="6" y2="-0.5" transform="matrix(-0.605515 0.795834 0.798353 0.60219 82.6331 205)" stroke="#C4C4C4"/>
<line y1="-0.5" x2="6" y2="-0.5" transform="matrix(-0.807814 -0.589438 -0.586063 0.810265 214.742 191.369)" stroke="#C4C4C4"/>
<line y1="-0.5" x2="6" y2="-0.5" transform="matrix(-0.807814 -0.589438 -0.586063 0.810265 66.8469 81.5366)" stroke="#C4C4C4"/>
<line y1="-0.5" x2="6" y2="-0.5" transform="matrix(-0.415052 -0.909797 -0.908058 0.418844 177.261 221.357)" stroke="#C4C4C4"/>
<line y1="-0.5" x2="6" y2="-0.5" transform="matrix(-0.415052 -0.909797 -0.908058 0.418844 100.49 54.459)" stroke="#C4C4C4"/>
<line x1="157.551" y1="41.9985" x2="156.221" y2="47.8493" stroke="#C4C4C4"/>
<line x1="116.4" y1="221.16" x2="115.071" y2="227.011" stroke="#C4C4C4"/>
<line y1="-0.5" x2="6" y2="-0.5" transform="matrix(-0.97412 -0.226033 -0.221968 0.975054 230.814 155.092)" stroke="#C4C4C4"/>
<line y1="-0.5" x2="6" y2="-0.5" transform="matrix(-0.97412 -0.226033 -0.221968 0.975054 51.8412 112.94)" stroke="#C4C4C4"/>
<line y1="-0.5" x2="6" y2="-0.5" transform="matrix(-0.960947 0.276734 0.28074 0.959784 228.627 106.932)" stroke="#C4C4C4"/>
<line y1="-0.5" x2="6" y2="-0.5" transform="matrix(-0.960947 0.276734 0.28074 0.959784 51.354 158.472)" stroke="#C4C4C4"/>
<line y1="-0.5" x2="6" y2="-0.5" transform="matrix(-0.690361 0.723465 0.726339 0.687337 202.921 64.4917)" stroke="#C4C4C4"/>
<line y1="-0.5" x2="6" y2="-0.5" transform="matrix(-0.690361 0.723465 0.726339 0.687337 75.1478 198.369)" stroke="#C4C4C4"/>
<line y1="-0.5" x2="6" y2="-0.5" transform="matrix(-0.737161 -0.675718 -0.672637 0.739973 207.953 199.533)" stroke="#C4C4C4"/>
<line y1="-0.5" x2="6" y2="-0.5" transform="matrix(-0.737161 -0.675718 -0.672637 0.739973 73.2066 73.916)" stroke="#C4C4C4"/>
<line y1="-0.5" x2="6" y2="-0.5" transform="matrix(-0.311171 -0.950354 -0.949048 0.315133 167.366 225.161)" stroke="#C4C4C4"/>
<line y1="-0.5" x2="6" y2="-0.5" transform="matrix(-0.311171 -0.950354 -0.949048 0.315133 109.656 50.7529)" stroke="#C4C4C4"/>
<line x1="167.803" y1="44.7408" x2="165.827" y2="50.4061" stroke="#C4C4C4"/>
<line x1="106.855" y1="218.17" x2="104.879" y2="223.835" stroke="#C4C4C4"/>
<line y1="-0.5" x2="6" y2="-0.5" transform="matrix(-0.942695 -0.333657 -0.329722 0.944078 227.945 165.325)" stroke="#C4C4C4"/>
<line y1="-0.5" x2="6" y2="-0.5" transform="matrix(-0.942695 -0.333657 -0.329722 0.944078 54.8164 103.403)" stroke="#C4C4C4"/>
<line y1="-0.5" x2="6" y2="-0.5" transform="matrix(-0.985885 0.167424 0.171535 0.985178 231.164 117.222)" stroke="#C4C4C4"/>
<line y1="-0.5" x2="6" y2="-0.5" transform="matrix(-0.985885 0.167424 0.171535 0.985178 49.2354 148.594)" stroke="#C4C4C4"/>
<line y1="-0.5" x2="6" y2="-0.5" transform="matrix(-0.767008 0.641638 0.644831 0.764325 210.37 72.1714)" stroke="#C4C4C4"/>
<line y1="-0.5" x2="6" y2="-0.5" transform="matrix(-0.767008 0.641638 0.644831 0.764325 68.4134 190.904)" stroke="#C4C4C4"/>
<line y1="-0.5" x2="6" y2="-0.5" transform="matrix(-0.656886 -0.75399 -0.751243 0.660026 200.254 206.927)" stroke="#C4C4C4"/>
<line y1="-0.5" x2="6" y2="-0.5" transform="matrix(-0.656886 -0.75399 -0.751243 0.660026 80.416 67.0161)" stroke="#C4C4C4"/>
<line y1="-0.5" x2="6" y2="-0.5" transform="matrix(-0.202831 -0.979214 -0.978359 0.206914 157.053 227.851)" stroke="#C4C4C4"/>
<line y1="-0.5" x2="6" y2="-0.5" transform="matrix(-0.202831 -0.979214 -0.978359 0.206914 119.229 48.0786)" stroke="#C4C4C4"/>
<line x1="175.85" y1="47.7972" x2="173.368" y2="53.2595" stroke="#C4C4C4"/>
<line x1="99.3989" y1="214.972" x2="96.9164" y2="220.434" stroke="#C4C4C4"/>
<line y1="-0.5" x2="6" y2="-0.5" transform="matrix(-0.908484 -0.41792 -0.414127 0.910219 224.789 173.347)" stroke="#C4C4C4"/>
<line y1="-0.5" x2="6" y2="-0.5" transform="matrix(-0.908484 -0.41792 -0.414127 0.910219 58.0018 95.9517)" stroke="#C4C4C4"/>
<line y1="-0.5" x2="6" y2="-0.5" transform="matrix(-0.997018 0.077165 0.0813231 0.996688 232.364 125.735)" stroke="#C4C4C4"/>
<line y1="-0.5" x2="6" y2="-0.5" transform="matrix(-0.997018 0.077165 0.0813231 0.996688 48.3381 140.449)" stroke="#C4C4C4"/>
<line y1="-0.5" x2="6" y2="-0.5" transform="matrix(-0.822128 0.569302 0.572726 0.819746 215.749 78.9814)" stroke="#C4C4C4"/>
<line y1="-0.5" x2="6" y2="-0.5" transform="matrix(-0.822128 0.569302 0.572726 0.819746 63.593 184.327)" stroke="#C4C4C4"/>
<line y1="-0.5" x2="6" y2="-0.5" transform="matrix(-0.58567 -0.810549 -0.808099 0.589046 193.432 212.261)" stroke="#C4C4C4"/>
<line y1="-0.5" x2="6" y2="-0.5" transform="matrix(-0.58567 -0.810549 -0.808099 0.589046 86.8012 62.041)" stroke="#C4C4C4"/>
<line y1="-0.5" x2="6" y2="-0.5" transform="matrix(-0.113031 -0.993591 -0.993111 0.117175 148.509 229.173)" stroke="#C4C4C4"/>
<line y1="-0.5" x2="6" y2="-0.5" transform="matrix(-0.113031 -0.993591 -0.993111 0.117175 127.174 46.708)" stroke="#C4C4C4"/>
<path d="M110.695 113.603C110.695 115.164 110.222 116.491 109.276 117.585C108.331 118.679 107.003 119.431 105.294 119.841V119.943C107.311 120.194 108.838 120.809 109.875 121.789C110.911 122.757 111.43 124.068 111.43 125.72C111.43 128.124 110.558 129.998 108.815 131.342C107.072 132.675 104.582 133.342 101.347 133.342C98.6351 133.342 96.2311 132.892 94.1348 131.992V127.497C95.1032 127.987 96.1685 128.386 97.3306 128.693C98.4927 129.001 99.6434 129.155 100.783 129.155C102.526 129.155 103.813 128.859 104.645 128.266C105.477 127.674 105.893 126.722 105.893 125.412C105.893 124.239 105.414 123.407 104.457 122.917C103.5 122.427 101.973 122.182 99.877 122.182H97.98V118.132H99.9111C101.848 118.132 103.261 117.881 104.149 117.38C105.049 116.867 105.5 115.996 105.5 114.765C105.5 112.874 104.315 111.928 101.945 111.928C101.125 111.928 100.287 112.065 99.4326 112.338C98.5895 112.612 97.6496 113.085 96.6128 113.757L94.1689 110.117C96.4476 108.476 99.1649 107.656 102.321 107.656C104.907 107.656 106.946 108.18 108.439 109.228C109.943 110.276 110.695 111.735 110.695 113.603ZM121.581 133.342C119.337 133.342 117.571 132.47 116.283 130.727C115.007 128.984 114.369 126.569 114.369 123.481C114.369 120.348 115.019 117.91 116.317 116.167C117.628 114.412 119.428 113.535 121.718 113.535C124.122 113.535 125.956 114.469 127.221 116.337H127.392C127.13 114.913 126.999 113.643 126.999 112.526V106.408H132.228V133H128.229L127.221 130.522H126.999C125.814 132.402 124.008 133.342 121.581 133.342ZM123.41 129.189C124.743 129.189 125.717 128.802 126.332 128.027C126.959 127.252 127.3 125.936 127.357 124.079V123.515C127.357 121.464 127.038 119.995 126.4 119.106C125.774 118.217 124.748 117.773 123.324 117.773C122.162 117.773 121.256 118.269 120.607 119.26C119.969 120.24 119.65 121.669 119.65 123.549C119.65 125.429 119.975 126.842 120.624 127.788C121.273 128.722 122.202 129.189 123.41 129.189ZM137.458 108.955C137.458 107.257 138.403 106.408 140.294 106.408C142.186 106.408 143.131 107.257 143.131 108.955C143.131 109.764 142.892 110.396 142.414 110.852C141.946 111.296 141.24 111.518 140.294 111.518C138.403 111.518 137.458 110.664 137.458 108.955ZM142.892 133H137.68V113.894H142.892V133ZM160.512 133L159.503 130.402H159.367C158.489 131.507 157.584 132.277 156.649 132.709C155.727 133.131 154.519 133.342 153.026 133.342C151.192 133.342 149.745 132.818 148.686 131.77C147.637 130.721 147.113 129.229 147.113 127.292C147.113 125.264 147.82 123.771 149.232 122.814C150.657 121.846 152.799 121.311 155.658 121.208L158.974 121.105V120.268C158.974 118.331 157.982 117.363 156 117.363C154.473 117.363 152.679 117.824 150.617 118.747L148.891 115.227C151.09 114.076 153.528 113.5 156.205 113.5C158.769 113.5 160.734 114.059 162.101 115.175C163.468 116.292 164.152 117.989 164.152 120.268V133H160.512ZM158.974 124.147L156.957 124.216C155.442 124.261 154.314 124.535 153.573 125.036C152.833 125.537 152.462 126.301 152.462 127.326C152.462 128.796 153.306 129.531 154.992 129.531C156.199 129.531 157.162 129.183 157.88 128.488C158.609 127.793 158.974 126.87 158.974 125.72V124.147ZM182.865 127.326C182.865 129.286 182.182 130.778 180.814 131.804C179.459 132.829 177.425 133.342 174.713 133.342C173.323 133.342 172.139 133.245 171.159 133.051C170.179 132.869 169.262 132.596 168.407 132.231V127.924C169.376 128.38 170.464 128.762 171.671 129.069C172.89 129.377 173.961 129.531 174.884 129.531C176.776 129.531 177.721 128.984 177.721 127.89C177.721 127.48 177.596 127.15 177.345 126.899C177.095 126.637 176.662 126.346 176.046 126.027C175.431 125.697 174.611 125.315 173.585 124.882C172.116 124.267 171.033 123.697 170.338 123.173C169.655 122.649 169.153 122.051 168.834 121.379C168.527 120.695 168.373 119.858 168.373 118.867C168.373 117.169 169.028 115.859 170.338 114.936C171.66 114.002 173.528 113.535 175.944 113.535C178.245 113.535 180.484 114.036 182.66 115.039L181.088 118.798C180.131 118.388 179.236 118.052 178.405 117.79C177.573 117.528 176.724 117.397 175.858 117.397C174.32 117.397 173.551 117.813 173.551 118.645C173.551 119.112 173.796 119.516 174.286 119.858C174.787 120.2 175.875 120.707 177.55 121.379C179.043 121.983 180.137 122.547 180.832 123.071C181.527 123.595 182.039 124.199 182.37 124.882C182.7 125.566 182.865 126.381 182.865 127.326Z" fill="black"/>
<path d="M119.186 152H117.809V146.469C117.809 145.809 117.824 145.285 117.855 144.898C117.766 144.992 117.654 145.096 117.521 145.209C117.393 145.322 116.955 145.682 116.209 146.287L115.518 145.414L118.037 143.434H119.186V152ZM122.971 152L126.357 144.658H121.904V143.445H127.828V144.406L124.459 152H122.971ZM138.129 152H136.746V148.016C136.746 147.516 136.645 147.143 136.441 146.896C136.242 146.65 135.924 146.527 135.486 146.527C134.908 146.527 134.482 146.701 134.209 147.049C133.939 147.393 133.805 147.971 133.805 148.783V152H132.428V142.883H133.805V145.197C133.805 145.568 133.781 145.965 133.734 146.387H133.822C134.01 146.074 134.27 145.832 134.602 145.66C134.938 145.488 135.328 145.402 135.773 145.402C137.344 145.402 138.129 146.193 138.129 147.775V152ZM145.793 148.748C145.793 149.807 145.521 150.633 144.979 151.227C144.436 151.82 143.68 152.117 142.711 152.117C142.105 152.117 141.57 151.98 141.105 151.707C140.641 151.434 140.283 151.041 140.033 150.529C139.783 150.018 139.658 149.424 139.658 148.748C139.658 147.697 139.928 146.877 140.467 146.287C141.006 145.697 141.766 145.402 142.746 145.402C143.684 145.402 144.426 145.705 144.973 146.311C145.52 146.912 145.793 147.725 145.793 148.748ZM141.076 148.748C141.076 150.244 141.629 150.992 142.734 150.992C143.828 150.992 144.375 150.244 144.375 148.748C144.375 147.268 143.824 146.527 142.723 146.527C142.145 146.527 141.725 146.719 141.463 147.102C141.205 147.484 141.076 148.033 141.076 148.748ZM150.668 145.402C150.945 145.402 151.174 145.422 151.354 145.461L151.219 146.744C151.023 146.697 150.82 146.674 150.609 146.674C150.059 146.674 149.611 146.854 149.268 147.213C148.928 147.572 148.758 148.039 148.758 148.613V152H147.381V145.52H148.459L148.641 146.662H148.711C148.926 146.275 149.205 145.969 149.549 145.742C149.896 145.516 150.27 145.402 150.668 145.402ZM156.615 152L156.34 151.098H156.293C155.98 151.492 155.666 151.762 155.35 151.906C155.033 152.047 154.627 152.117 154.131 152.117C153.494 152.117 152.996 151.945 152.637 151.602C152.281 151.258 152.104 150.771 152.104 150.143C152.104 149.475 152.352 148.971 152.848 148.631C153.344 148.291 154.1 148.105 155.115 148.074L156.234 148.039V147.693C156.234 147.279 156.137 146.971 155.941 146.768C155.75 146.561 155.451 146.457 155.045 146.457C154.713 146.457 154.395 146.506 154.09 146.604C153.785 146.701 153.492 146.816 153.211 146.949L152.766 145.965C153.117 145.781 153.502 145.643 153.92 145.549C154.338 145.451 154.732 145.402 155.104 145.402C155.928 145.402 156.549 145.582 156.967 145.941C157.389 146.301 157.6 146.865 157.6 147.635V152H156.615ZM154.564 151.062C155.064 151.062 155.465 150.924 155.766 150.646C156.07 150.365 156.223 149.973 156.223 149.469V148.906L155.391 148.941C154.742 148.965 154.27 149.074 153.973 149.27C153.68 149.461 153.533 149.756 153.533 150.154C153.533 150.443 153.619 150.668 153.791 150.828C153.963 150.984 154.221 151.062 154.564 151.062ZM163.875 150.154C163.875 150.787 163.645 151.273 163.184 151.613C162.723 151.949 162.062 152.117 161.203 152.117C160.34 152.117 159.646 151.986 159.123 151.725V150.535C159.885 150.887 160.594 151.062 161.25 151.062C162.098 151.062 162.521 150.807 162.521 150.295C162.521 150.131 162.475 149.994 162.381 149.885C162.287 149.775 162.133 149.662 161.918 149.545C161.703 149.428 161.404 149.295 161.021 149.146C160.275 148.857 159.77 148.568 159.504 148.279C159.242 147.99 159.111 147.615 159.111 147.154C159.111 146.6 159.334 146.17 159.779 145.865C160.229 145.557 160.838 145.402 161.607 145.402C162.369 145.402 163.09 145.557 163.77 145.865L163.324 146.902C162.625 146.613 162.037 146.469 161.561 146.469C160.834 146.469 160.471 146.676 160.471 147.09C160.471 147.293 160.564 147.465 160.752 147.605C160.943 147.746 161.357 147.939 161.994 148.186C162.529 148.393 162.918 148.582 163.16 148.754C163.402 148.926 163.582 149.125 163.699 149.352C163.816 149.574 163.875 149.842 163.875 150.154ZM113.438 168H107.631V166.957L109.84 164.736C110.492 164.068 110.924 163.596 111.135 163.318C111.35 163.037 111.506 162.773 111.604 162.527C111.701 162.281 111.75 162.018 111.75 161.736C111.75 161.35 111.633 161.045 111.398 160.822C111.168 160.6 110.848 160.488 110.438 160.488C110.109 160.488 109.791 160.549 109.482 160.67C109.178 160.791 108.824 161.01 108.422 161.326L107.678 160.418C108.154 160.016 108.617 159.73 109.066 159.562C109.516 159.395 109.994 159.311 110.502 159.311C111.299 159.311 111.938 159.52 112.418 159.938C112.898 160.352 113.139 160.91 113.139 161.613C113.139 162 113.068 162.367 112.928 162.715C112.791 163.062 112.578 163.422 112.289 163.793C112.004 164.16 111.527 164.658 110.859 165.287L109.371 166.729V166.787H113.438V168ZM117.393 162.65C118.256 162.65 118.939 162.879 119.443 163.336C119.947 163.793 120.199 164.416 120.199 165.205C120.199 166.119 119.912 166.834 119.338 167.35C118.768 167.861 117.955 168.117 116.9 168.117C115.943 168.117 115.191 167.963 114.645 167.654V166.406C114.961 166.586 115.324 166.725 115.734 166.822C116.145 166.92 116.525 166.969 116.877 166.969C117.498 166.969 117.971 166.83 118.295 166.553C118.619 166.275 118.781 165.869 118.781 165.334C118.781 164.311 118.129 163.799 116.824 163.799C116.641 163.799 116.414 163.818 116.145 163.857C115.875 163.893 115.639 163.934 115.436 163.98L114.82 163.617L115.148 159.434H119.602V160.658H116.361L116.168 162.779C116.305 162.756 116.471 162.729 116.666 162.697C116.865 162.666 117.107 162.65 117.393 162.65ZM130.377 168H128.994V164.004C128.994 163.508 128.9 163.139 128.713 162.896C128.525 162.65 128.232 162.527 127.834 162.527C127.303 162.527 126.912 162.701 126.662 163.049C126.416 163.393 126.293 163.967 126.293 164.771V168H124.916V161.52H125.994L126.188 162.369H126.258C126.438 162.061 126.697 161.822 127.037 161.654C127.381 161.486 127.758 161.402 128.168 161.402C129.164 161.402 129.824 161.742 130.148 162.422H130.242C130.434 162.102 130.703 161.852 131.051 161.672C131.398 161.492 131.797 161.402 132.246 161.402C133.02 161.402 133.582 161.598 133.934 161.988C134.289 162.379 134.467 162.975 134.467 163.775V168H133.09V164.004C133.09 163.508 132.994 163.139 132.803 162.896C132.615 162.65 132.322 162.527 131.924 162.527C131.389 162.527 130.996 162.695 130.746 163.031C130.5 163.363 130.377 163.875 130.377 164.566V168ZM137.766 168H136.389V161.52H137.766V168ZM136.307 159.803C136.307 159.557 136.373 159.367 136.506 159.234C136.643 159.102 136.836 159.035 137.086 159.035C137.328 159.035 137.516 159.102 137.648 159.234C137.785 159.367 137.854 159.557 137.854 159.803C137.854 160.037 137.785 160.223 137.648 160.359C137.516 160.492 137.328 160.559 137.086 160.559C136.836 160.559 136.643 160.492 136.506 160.359C136.373 160.223 136.307 160.037 136.307 159.803ZM145.441 168H144.059V164.016C144.059 163.516 143.957 163.143 143.754 162.896C143.555 162.65 143.236 162.527 142.799 162.527C142.217 162.527 141.791 162.699 141.521 163.043C141.252 163.387 141.117 163.963 141.117 164.771V168H139.74V161.52H140.818L141.012 162.369H141.082C141.277 162.061 141.555 161.822 141.914 161.654C142.273 161.486 142.672 161.402 143.109 161.402C144.664 161.402 145.441 162.193 145.441 163.775V168ZM151.928 168L151.734 167.15H151.664C151.473 167.451 151.199 167.688 150.844 167.859C150.492 168.031 150.09 168.117 149.637 168.117C148.852 168.117 148.266 167.922 147.879 167.531C147.492 167.141 147.299 166.549 147.299 165.756V161.52H148.688V165.516C148.688 166.012 148.789 166.385 148.992 166.635C149.195 166.881 149.514 167.004 149.947 167.004C150.525 167.004 150.949 166.832 151.219 166.488C151.492 166.141 151.629 165.561 151.629 164.748V161.52H153.012V168H151.928ZM157.389 167.004C157.725 167.004 158.061 166.951 158.396 166.846V167.883C158.244 167.949 158.047 168.004 157.805 168.047C157.566 168.094 157.318 168.117 157.061 168.117C155.756 168.117 155.104 167.43 155.104 166.055V162.562H154.219V161.953L155.168 161.449L155.637 160.078H156.486V161.52H158.332V162.562H156.486V166.031C156.486 166.363 156.568 166.609 156.732 166.77C156.9 166.926 157.119 167.004 157.389 167.004ZM165.445 164.748C165.445 165.807 165.174 166.633 164.631 167.227C164.088 167.82 163.332 168.117 162.363 168.117C161.758 168.117 161.223 167.98 160.758 167.707C160.293 167.434 159.936 167.041 159.686 166.529C159.436 166.018 159.311 165.424 159.311 164.748C159.311 163.697 159.58 162.877 160.119 162.287C160.658 161.697 161.418 161.402 162.398 161.402C163.336 161.402 164.078 161.705 164.625 162.311C165.172 162.912 165.445 163.725 165.445 164.748ZM160.729 164.748C160.729 166.244 161.281 166.992 162.387 166.992C163.48 166.992 164.027 166.244 164.027 164.748C164.027 163.268 163.477 162.527 162.375 162.527C161.797 162.527 161.377 162.719 161.115 163.102C160.857 163.484 160.729 164.033 160.729 164.748ZM171.387 166.154C171.387 166.787 171.156 167.273 170.695 167.613C170.234 167.949 169.574 168.117 168.715 168.117C167.852 168.117 167.158 167.986 166.635 167.725V166.535C167.396 166.887 168.105 167.062 168.762 167.062C169.609 167.062 170.033 166.807 170.033 166.295C170.033 166.131 169.986 165.994 169.893 165.885C169.799 165.775 169.645 165.662 169.43 165.545C169.215 165.428 168.916 165.295 168.533 165.146C167.787 164.857 167.281 164.568 167.016 164.279C166.754 163.99 166.623 163.615 166.623 163.154C166.623 162.6 166.846 162.17 167.291 161.865C167.74 161.557 168.35 161.402 169.119 161.402C169.881 161.402 170.602 161.557 171.281 161.865L170.836 162.902C170.137 162.613 169.549 162.469 169.072 162.469C168.346 162.469 167.982 162.676 167.982 163.09C167.982 163.293 168.076 163.465 168.264 163.605C168.455 163.746 168.869 163.939 169.506 164.186C170.041 164.393 170.43 164.582 170.672 164.754C170.914 164.926 171.094 165.125 171.211 165.352C171.328 165.574 171.387 165.842 171.387 166.154Z" fill="black"/>
<ellipse cx="194" cy="41.5" rx="15" ry="13.5" fill="#92E3A9"/>
<circle cx="149" cy="26" r="14" fill="#92E3A9"/>
<defs>
<filter id="filter0_d" x="12" y="12" width="250" height="272" filterUnits="userSpaceOnUse" color-interpolation-filters="sRGB">
<feFlood flood-opacity="0" result="BackgroundImageFix"/>
<feColorMatrix in="SourceAlpha" type="matrix" values="0 0 0 0 0 0 0 0 0 0 0 0 0 0 0 0 0 0 127 0"/>
<feMorphology radius="20" operator="erode" in="SourceAlpha" result="effect1_dropShadow"/>
<feOffset dy="22"/>
<feGaussianBlur stdDeviation="10"/>
<feColorMatrix type="matrix" values="0 0 0 0 0.313726 0 0 0 0 0.313726 0 0 0 0 0.462745 0 0 0 1 0"/>
<feBlend mode="normal" in2="BackgroundImageFix" result="effect1_dropShadow"/>
<feBlend mode="normal" in="SourceGraphic" in2="effect1_dropShadow" result="shape"/>
</filter>
</defs>
</svg>
